<svg width="12" height="12" viewBox="0 0 12 12" fill="none" xmlns="http://www.w3.org/2000/svg">
<path fill-rule="evenodd" clip-rule="evenodd" d="M10.2227 5.99992C10.2227 6.23957 10.0284 6.43384 9.78874 6.43384L3.63407 6.43384L6.03958 8.72457C6.21232 8.89067 6.21771 9.16536 6.05161 9.33811C5.88551 9.51085 5.61082 9.51624 5.43807 9.35014L2.256 6.3127C2.17091 6.23089 2.12283 6.11795 2.12283 5.99992C2.12283 5.88189 2.17091 5.76895 2.256 5.68714L5.43807 2.6497C5.61082 2.4836 5.88551 2.48899 6.05161 2.66173C6.21771 2.83448 6.21232 3.10917 6.03958 3.27527L3.63407 5.566L9.78874 5.566C10.0284 5.566 10.2227 5.76027 10.2227 5.99992Z" fill="#171E27"/>
</svg>
