<svg width="13" height="12" viewBox="0 0 13 12" fill="none" xmlns="http://www.w3.org/2000/svg">
<path fill-rule="evenodd" clip-rule="evenodd" d="M2.57031 6.00008C2.57031 5.76043 2.76458 5.56616 3.00423 5.56616L9.1589 5.56616L6.75339 3.27543C6.58065 3.10933 6.57526 2.83464 6.74136 2.66189C6.90746 2.48915 7.18215 2.48376 7.3549 2.64986L10.537 5.6873C10.6221 5.76911 10.6701 5.88205 10.6701 6.00008C10.6701 6.11811 10.6221 6.23105 10.537 6.31286L7.3549 9.3503C7.18215 9.5164 6.90746 9.51101 6.74136 9.33827C6.57526 9.16552 6.58065 8.89083 6.75339 8.72473L9.1589 6.434L3.00423 6.434C2.76458 6.434 2.57031 6.23973 2.57031 6.00008Z" fill="#171E27"/>
</svg>
