<svg width="24" height="24" viewBox="0 0 24 24" fill="none" xmlns="http://www.w3.org/2000/svg">
<g clip-path="url(#clip0_2367_8935)">
<path fill-rule="evenodd" clip-rule="evenodd" d="M12 24C14.3734 24 16.6934 23.2962 18.6668 21.9776C20.6402 20.6591 22.1783 18.7849 23.0865 16.5922C23.9948 14.3995 24.2324 11.9867 23.7694 9.65892C23.3064 7.33115 22.1635 5.19295 20.4853 3.51472C18.8071 1.83649 16.6689 0.693605 14.3411 0.230582C12.0133 -0.232441 9.60052 0.00519937 7.40781 0.913451C5.21509 1.8217 3.34093 3.35977 2.02235 5.33316C0.703777 7.30655 0 9.62663 0 12C0 15.1826 1.26427 18.2348 3.51471 20.4853C5.76515 22.7357 8.8174 24 12 24ZM12 23.04C9.81649 23.04 7.68203 22.3925 5.86652 21.1794C4.051 19.9663 2.63598 18.2421 1.80038 16.2248C0.964793 14.2075 0.746169 11.9878 1.17215 9.84621C1.59813 7.70466 2.64956 5.73752 4.19353 4.19355C5.7375 2.64958 7.70467 1.59812 9.84622 1.17214C11.9878 0.746155 14.2075 0.964785 16.2248 1.80038C18.2421 2.63597 19.9664 4.05099 21.1794 5.86651C22.3925 7.68203 23.04 9.8165 23.04 12C23.04 13.4498 22.7544 14.8854 22.1996 16.2248C21.6448 17.5643 20.8316 18.7813 19.8065 19.8065C18.7813 20.8316 17.5643 21.6448 16.2248 22.1996C14.8854 22.7544 13.4498 23.04 12 23.04ZM12 23.04V3.12001C11.4308 3.11078 10.8638 3.19179 10.32 3.36001C9.70231 3.56637 9.13141 3.8926 8.64001 4.32C6.72001 5.76 7.67999 9.60001 7.67999 9.60001C7.56899 9.71101 7.55099 9.72751 7.43999 9.84001C7.27103 10.0406 7.18517 10.2982 7.19998 10.56C7.27324 11.039 7.53185 11.47 7.92 11.76C8.00046 13.3433 8.58964 14.8583 9.59999 16.08C9.76779 16.5618 9.81176 17.0781 9.72789 17.5813C9.64402 18.0846 9.43497 18.5587 9.11998 18.96C9.11998 18.96 6.11252 19.7745 4.80002 20.16C5.23321 20.6131 5.71627 21.0156 6.24001 21.36C6.85587 21.7262 7.49756 22.047 8.16 22.32C8.76866 22.5244 9.39262 22.6798 10.026 22.785C10.6767 22.9193 11.3365 23.0045 12 23.04V3.12001C12.5692 3.11078 13.1362 3.19179 13.68 3.36001C14.2977 3.56637 14.8686 3.8926 15.36 4.32C17.28 5.76 16.32 9.60001 16.32 9.60001C16.431 9.71101 16.449 9.72751 16.56 9.84001C16.7291 10.0405 16.815 10.2982 16.8 10.56C16.7268 11.039 16.4682 11.47 16.08 11.76C15.9995 13.3433 15.4104 14.8583 14.4 16.08C14.2322 16.5618 14.1882 17.0781 14.2721 17.5813C14.356 18.0846 14.565 18.5587 14.88 18.96C14.88 18.96 17.8875 19.7745 19.2 20.16C18.7668 20.6131 18.2837 21.0156 17.76 21.36C17.1441 21.7261 16.5024 22.047 15.84 22.32C15.2313 22.5243 14.6074 22.6798 13.974 22.785C13.3233 22.9193 12.6635 23.0045 12 23.04Z" fill="#5AC8FA"/>
</g>
<defs>
<clipPath id="clip0_2367_8935">
<rect width="24" height="24" rx="12" fill="white"/>
</clipPath>
</defs>
</svg>
