<svg width="22" height="22" viewBox="0 0 22 22" fill="none" xmlns="http://www.w3.org/2000/svg">
<g clip-path="url(#clip0_2501_8532)">
<path fill-rule="evenodd" clip-rule="evenodd" d="M11.0002 2.3999C7.43792 2.3999 4.55016 5.28767 4.55016 8.8499C4.55016 10.878 4.0624 12.7899 3.19849 14.4768C3.0838 14.7007 3.08024 14.9654 3.18887 15.1924C3.29749 15.4193 3.50585 15.5826 3.75221 15.6337C4.89997 15.872 6.06789 16.0548 7.25302 16.1793C7.42576 18.097 9.03747 19.5999 11.0002 19.5999C12.9629 19.5999 14.5746 18.097 14.7474 16.1793C15.9325 16.0548 17.1004 15.872 18.2481 15.6337C18.4945 15.5826 18.7028 15.4193 18.8115 15.1924C18.9201 14.9654 18.9165 14.7007 18.8018 14.4768C17.9379 12.7899 17.4502 10.878 17.4502 8.8499C17.4502 5.28767 14.5624 2.3999 11.0002 2.3999ZM8.90319 16.3139C9.59708 16.3544 10.2963 16.3749 11.0002 16.3749C11.7041 16.3749 12.4033 16.3544 13.0972 16.3139C12.8804 17.272 12.0238 17.9874 11.0002 17.9874C9.97655 17.9874 9.11999 17.272 8.90319 16.3139Z" fill="#171E27"/>
</g>
<defs>
<clipPath id="clip0_2501_8532">
<rect width="21.5" height="21.5" fill="white" transform="translate(0.25 0.25)"/>
</clipPath>
</defs>
</svg>
