<svg width="20" height="20" viewBox="0 0 20 20" fill="none" xmlns="http://www.w3.org/2000/svg">
<path d="M2.708 5.41698C3.24355 5.41698 3.76707 5.25818 4.21238 4.96067C4.65769 4.66315 5.00478 4.24028 5.20977 3.74552C5.41476 3.25075 5.46845 2.70631 5.36404 2.18104C5.25963 1.65577 5.00182 1.17325 4.6232 0.794486C4.24458 0.415726 3.76215 0.157735 3.23692 0.0531333C2.71168 -0.0514684 2.16723 0.00201628 1.67239 0.206825C1.17755 0.411634 0.754546 0.758569 0.456867 1.20377C0.159188 1.64896 0.000197766 2.17243 0 2.70798C0 3.42618 0.285307 4.11497 0.793156 4.62282C1.301 5.13067 1.98979 5.41698 2.708 5.41698ZM10 5.41698C10.5356 5.41698 11.0592 5.25816 11.5045 4.9606C11.9498 4.66304 12.2969 4.24011 12.5019 3.74528C12.7068 3.25046 12.7605 2.70597 12.656 2.18067C12.5515 1.65537 12.2936 1.17285 11.9148 0.794132C11.5361 0.415412 11.0536 0.1575 10.5283 0.0530112C10.003 -0.0514776 9.45851 0.00215 8.96369 0.207112C8.46887 0.412074 8.04594 0.759165 7.74838 1.20449C7.45082 1.64982 7.292 2.17339 7.292 2.70898C7.292 3.42718 7.57731 4.11597 8.08516 4.62382C8.593 5.13167 9.28179 5.41698 10 5.41698ZM17.292 5.41698C17.8276 5.41698 18.3512 5.25816 18.7965 4.9606C19.2418 4.66304 19.5889 4.24011 19.7939 3.74528C19.9988 3.25046 20.0525 2.70597 19.948 2.18067C19.8435 1.65537 19.5856 1.17285 19.2068 0.794132C18.8281 0.415412 18.3456 0.1575 17.8203 0.0530112C17.295 -0.0514776 16.7505 0.00215 16.2557 0.207112C15.7609 0.412074 15.3379 0.759165 15.0404 1.20449C14.7428 1.64982 14.584 2.17339 14.584 2.70898C14.584 3.42718 14.8693 4.11597 15.3772 4.62382C15.885 5.13167 16.5738 5.41698 17.292 5.41698ZM2.708 12.708C3.24359 12.708 3.76716 12.5492 4.21248 12.2516C4.65781 11.954 5.0049 11.5311 5.20987 11.0363C5.41483 10.5415 5.46845 9.99697 5.36397 9.47167C5.25948 8.94637 5.00157 8.46385 4.62284 8.08513C4.24412 7.70641 3.76161 7.4485 3.23631 7.34401C2.711 7.23952 2.16652 7.29315 1.67169 7.49811C1.17687 7.70307 0.75394 8.05017 0.456381 8.49549C0.158822 8.94082 0 9.46439 0 9.99998C0 10.7182 0.285307 11.407 0.793156 11.9148C1.301 12.4227 1.98979 12.708 2.708 12.708ZM10 12.708C10.5356 12.708 11.0592 12.5492 11.5045 12.2516C11.9498 11.954 12.2969 11.5311 12.5019 11.0363C12.7068 10.5415 12.7605 9.99697 12.656 9.47167C12.5515 8.94637 12.2936 8.46385 11.9148 8.08513C11.5361 7.70641 11.0536 7.4485 10.5283 7.34401C10.003 7.23952 9.45851 7.29315 8.96369 7.49811C8.46887 7.70307 8.04594 8.05017 7.74838 8.49549C7.45082 8.94082 7.292 9.46439 7.292 9.99998C7.292 10.7182 7.57731 11.407 8.08516 11.9148C8.593 12.4227 9.28179 12.708 10 12.708ZM17.292 12.708C17.8275 12.7078 18.351 12.5488 18.7962 12.2511C19.2414 11.9534 19.5883 11.5304 19.7932 11.0356C19.998 10.5408 20.0514 9.99629 19.9468 9.47106C19.8422 8.94583 19.5843 8.4634 19.2055 8.08478C18.8267 7.70616 18.3442 7.44835 17.8189 7.34394C17.2937 7.23953 16.7492 7.29322 16.2545 7.49821C15.7597 7.7032 15.3368 8.05029 15.0393 8.4956C14.7418 8.9409 14.583 9.46443 14.583 9.99998C14.583 10.7182 14.8683 11.407 15.3762 11.9148C15.884 12.4227 16.5738 12.708 17.292 12.708ZM2.708 20C3.24359 20 3.76716 19.8412 4.21248 19.5436C4.65781 19.246 5.0049 18.8231 5.20987 18.3283C5.41483 17.8335 5.46845 17.289 5.36397 16.7637C5.25948 16.2384 5.00157 15.7559 4.62284 15.3771C4.24412 14.9984 3.76161 14.7405 3.23631 14.636C2.711 14.5315 2.16652 14.5852 1.67169 14.7901C1.17687 14.9951 0.75394 15.3422 0.456381 15.7875C0.158822 16.2328 0 16.7564 0 17.292C0 18.0102 0.285307 18.699 0.793156 19.2068C1.301 19.7147 1.98979 20 2.708 20ZM10 20C10.5356 20 11.0592 19.8412 11.5045 19.5436C11.9498 19.246 12.2969 18.8231 12.5019 18.3283C12.7068 17.8335 12.7605 17.289 12.656 16.7637C12.5515 16.2384 12.2936 15.7559 11.9148 15.3771C11.5361 14.9984 11.0536 14.7405 10.5283 14.636C10.003 14.5315 9.45851 14.5852 8.96369 14.7901C8.46887 14.9951 8.04594 15.3422 7.74838 15.7875C7.45082 16.2328 7.292 16.7564 7.292 17.292C7.292 18.0102 7.57731 18.699 8.08516 19.2068C8.593 19.7147 9.28179 20 10 20ZM17.292 20C17.8276 20 18.3512 19.8412 18.7965 19.5436C19.2418 19.246 19.5889 18.8231 19.7939 18.3283C19.9988 17.8335 20.0525 17.289 19.948 16.7637C19.8435 16.2384 19.5856 15.7559 19.2068 15.3771C18.8281 14.9984 18.3456 14.7405 17.8203 14.636C17.295 14.5315 16.7505 14.5852 16.2557 14.7901C15.7609 14.9951 15.3379 15.3422 15.0404 15.7875C14.7428 16.2328 14.584 16.7564 14.584 17.292C14.584 18.0102 14.8693 18.699 15.3772 19.2068C15.885 19.7147 16.5738 20 17.292 20Z" fill="#FF3B30"/>
</svg>
