<svg width="52" height="52" viewBox="0 0 52 52" fill="none" xmlns="http://www.w3.org/2000/svg">
<g clip-path="url(#clip0_1431_57146)">
<path fill-rule="evenodd" clip-rule="evenodd" d="M26 52C31.1423 52 36.1691 50.4751 40.4448 47.6182C44.7205 44.7613 48.0529 40.7007 50.0208 35.9498C51.9887 31.1989 52.5036 25.9712 51.5004 20.9277C50.4972 15.8842 48.021 11.2514 44.3848 7.61524C40.7486 3.97907 36.1159 1.50281 31.0724 0.499594C26.0289 -0.503621 20.8011 0.0112653 16.0502 1.97914C11.2994 3.94702 7.23868 7.27951 4.38177 11.5552C1.52485 15.8309 0 20.8577 0 26C0 32.8956 2.73926 39.5088 7.6152 44.3848C12.4911 49.2607 19.1044 52 26 52ZM26 49.92C21.2691 49.92 16.6444 48.5171 12.7108 45.8888C8.77716 43.2604 5.71128 39.5246 3.90083 35.1538C2.09038 30.783 1.6167 25.9735 2.53966 21.3335C3.46262 16.6934 5.7407 12.4313 9.08598 9.08602C12.4312 5.74075 16.6935 3.46259 21.3335 2.53963C25.9735 1.61667 30.783 2.09037 35.1538 3.90082C39.5246 5.71126 43.2604 8.77715 45.8888 12.7108C48.5172 16.6444 49.92 21.2691 49.92 26C49.92 29.1412 49.3013 32.2517 48.0992 35.1538C46.8971 38.0559 45.1352 40.6928 42.914 42.914C40.6928 45.1352 38.0559 46.8971 35.1538 48.0992C32.2517 49.3013 29.1412 49.92 26 49.92ZM26 49.92V6.76001C24.7668 6.74003 23.5383 6.91554 22.36 7.28001C21.0217 7.72714 19.7847 8.43398 18.72 9.36001C14.56 12.48 16.64 20.8 16.64 20.8C16.3995 21.0405 16.3605 21.0763 16.12 21.32C15.7539 21.7546 15.5679 22.3127 15.6 22.88C15.7587 23.9178 16.319 24.8516 17.16 25.48C17.3343 28.9105 18.6109 32.1931 20.8 34.84C21.1635 35.8839 21.2588 37.0025 21.0771 38.0929C20.8954 39.1832 20.4424 40.2104 19.76 41.08C19.76 41.08 13.2438 42.8448 10.4 43.68C11.3386 44.6616 12.3852 45.5338 13.52 46.28C14.8544 47.0733 16.2447 47.7685 17.68 48.36C18.9988 48.8028 20.3507 49.1397 21.723 49.3675C23.1328 49.6584 24.5625 49.8431 26 49.92V6.76001C27.2332 6.74003 28.4617 6.91554 29.64 7.28001C30.9783 7.72714 32.2153 8.43398 33.28 9.36001C37.44 12.48 35.36 20.8 35.36 20.8C35.6005 21.0405 35.6395 21.0763 35.88 21.32C36.2464 21.7544 36.4325 22.3127 36.4 22.88C36.2413 23.9178 35.681 24.8516 34.84 25.48C34.6657 28.9105 33.3891 32.1931 31.2 34.84C30.8365 35.8839 30.7412 37.0025 30.9229 38.0929C31.1046 39.1832 31.5576 40.2104 32.24 41.08C32.24 41.08 38.7562 42.8448 41.6 43.68C40.6614 44.6616 39.6148 45.5339 38.48 46.28C37.1456 47.0733 35.7553 47.7685 34.32 48.36C33.0012 48.8027 31.6493 49.1396 30.277 49.3675C28.8672 49.6585 27.4375 49.8432 26 49.92Z" fill="#5AC8FA"/>
</g>
<defs>
<clipPath id="clip0_1431_57146">
<rect width="52" height="52" rx="4" fill="white"/>
</clipPath>
</defs>
</svg>
