<svg width="16" height="16" viewBox="0 0 16 16" fill="none" xmlns="http://www.w3.org/2000/svg">
<path fill-rule="evenodd" clip-rule="evenodd" d="M8 0.609375C8.37107 0.609375 8.67188 0.910184 8.67188 1.28125V7.32812H14.7188C15.0898 7.32812 15.3906 7.62893 15.3906 8C15.3906 8.37107 15.0898 8.67188 14.7188 8.67188H8.67188V14.7188C8.67188 15.0898 8.37107 15.3906 8 15.3906C7.62893 15.3906 7.32812 15.0898 7.32812 14.7188V8.67187H1.28125C0.910184 8.67187 0.609375 8.37107 0.609375 8C0.609375 7.62893 0.910184 7.32812 1.28125 7.32812H7.32812V1.28125C7.32812 0.910184 7.62893 0.609375 8 0.609375Z" fill="white"/>
</svg>
