<svg width="22" height="22" viewBox="0 0 22 22" fill="none" xmlns="http://www.w3.org/2000/svg">
<path d="M9.09985 6.98563C10.1494 6.06729 11.851 6.06729 12.9006 6.98563C13.9501 7.90397 13.9501 9.3929 12.9006 10.3112C12.7179 10.4711 12.5155 10.6031 12.3002 10.7073C11.6321 11.0306 11.0002 11.6016 11.0002 12.3438V13.0156M19.0625 11C19.0625 15.4528 15.4528 19.0625 11 19.0625C6.5472 19.0625 2.9375 15.4528 2.9375 11C2.9375 6.5472 6.5472 2.9375 11 2.9375C15.4528 2.9375 19.0625 6.5472 19.0625 11ZM11 15.7031H11.0067V15.7098H11V15.7031Z" stroke="#171E27" stroke-width="1.5" stroke-linecap="round" stroke-linejoin="round"/>
</svg>
