<svg width="22" height="22" viewBox="0 0 22 22" fill="none" xmlns="http://www.w3.org/2000/svg">
<path fill-rule="evenodd" clip-rule="evenodd" d="M9.67539 4.0124C6.41001 4.0124 3.76289 6.65952 3.76289 9.9249C3.76289 13.1903 6.41001 15.8374 9.67539 15.8374C11.3083 15.8374 12.7853 15.1765 13.8562 14.1057C14.927 13.0348 15.5879 11.5578 15.5879 9.9249C15.5879 6.65952 12.9408 4.0124 9.67539 4.0124ZM2.15039 9.9249C2.15039 5.76896 5.51945 2.3999 9.67539 2.3999C13.8313 2.3999 17.2004 5.76896 17.2004 9.9249C17.2004 11.7121 16.5766 13.3548 15.536 14.6453L19.1142 18.2235C19.4291 18.5384 19.4291 19.0489 19.1142 19.3638C18.7994 19.6786 18.2889 19.6786 17.974 19.3638L14.3958 15.7855C13.1052 16.8261 11.4626 17.4499 9.67539 17.4499C5.51945 17.4499 2.15039 14.0808 2.15039 9.9249Z" fill="#566881"/>
</svg>
