<svg width="18" height="18" viewBox="0 0 18 18" fill="none" xmlns="http://www.w3.org/2000/svg">
<path fill-rule="evenodd" clip-rule="evenodd" d="M17.8484 8.9999C17.8484 13.7496 13.9981 17.5999 9.24844 17.5999C4.49879 17.5999 0.648438 13.7496 0.648438 8.9999C0.648438 4.25025 4.49879 0.399902 9.24844 0.399902C13.9981 0.399902 17.8484 4.25025 17.8484 8.9999ZM9.24844 3.6249C9.69372 3.6249 10.0547 3.98587 10.0547 4.43115V9.26865C10.0547 9.71393 9.69372 10.0749 9.24844 10.0749C8.80316 10.0749 8.44219 9.71393 8.44219 9.26865V4.43115C8.44219 3.98587 8.80316 3.6249 9.24844 3.6249ZM9.24844 14.3749C9.84214 14.3749 10.3234 13.8936 10.3234 13.2999C10.3234 12.7062 9.84214 12.2249 9.24844 12.2249C8.65473 12.2249 8.17344 12.7062 8.17344 13.2999C8.17344 13.8936 8.65473 14.3749 9.24844 14.3749Z" fill="#DE1135"/>
</svg>
