<svg width="95" height="24" viewBox="0 0 95 24" fill="none" xmlns="http://www.w3.org/2000/svg">
<path d="M89.8904 4.74803H85.9624C85.3845 4.74803 84.9153 5.22047 84.9153 5.80243V8.43951C84.9153 9.02147 84.4462 9.49391 83.8683 9.49391H81.5119C80.934 9.49391 80.4648 9.02147 80.4648 8.43951V5.80243C80.4648 5.22047 79.9957 4.74803 79.4178 4.74803H71.8219C71.244 4.74803 70.7749 5.22047 70.7749 5.80243V17.9356C70.7749 18.5175 70.3057 18.99 69.7278 18.99H57.9416C57.3637 18.99 56.8945 18.5175 56.8945 17.9356C56.8945 17.3536 57.3637 16.8812 57.9416 16.8812H60.5603C61.1382 16.8812 61.6073 16.4087 61.6073 15.8268V12.9256C61.6073 12.3436 61.1382 11.8712 60.5603 11.8712H57.9416C57.3637 11.8712 56.8945 11.3987 56.8945 10.8167C56.8945 10.2348 57.3637 9.76235 57.9416 9.76235H61.3472H61.6095H65.2773C65.8552 9.76235 66.3244 9.28991 66.3244 8.70794V5.80673C66.3244 5.22477 65.8552 4.75233 65.2773 4.75233H29.3429C28.765 4.75233 28.2959 5.22477 28.2959 5.80673V13.456C28.2959 14.0379 28.765 14.5104 29.3429 14.5104H31.9616C32.5395 14.5104 33.0086 14.9828 33.0086 15.5648V17.9377C33.0086 18.5197 32.5395 18.9921 31.9616 18.9921H24.8903C24.3124 18.9921 23.8432 18.5197 23.8432 17.9377V10.5526C23.8432 9.97065 23.3741 9.49821 22.7962 9.49821H20.1775C19.5996 9.49821 19.1305 9.02577 19.1305 8.44381V6.07087C19.1305 5.4889 19.5996 5.01646 20.1775 5.01646H22.7962C23.3741 5.01646 23.8432 4.54402 23.8432 3.96206V1.0544C23.8432 0.472441 23.3741 0 22.7962 0H19.9152C19.3373 0 18.8682 0.472441 18.8682 1.0544V3.69148C18.8682 4.27344 18.399 4.74588 17.8211 4.74588H5.76196C5.18406 4.74588 4.71491 5.21833 4.71491 5.80029V13.4495C4.71491 14.0315 5.18406 14.5039 5.76196 14.5039H8.38064C8.95854 14.5039 9.42769 14.9764 9.42769 15.5583V17.9313C9.42769 18.5132 8.95854 18.9857 8.38064 18.9857H1.04705C0.469145 18.9857 0 19.4581 0 20.0401V22.9413C0 23.5233 0.469145 23.9957 1.04705 23.9957H13.3578C13.9358 23.9957 14.4049 23.5233 14.4049 22.9413V15.2921C14.4049 14.7101 13.9358 14.2377 13.3578 14.2377H10.7392C10.1613 14.2377 9.69212 13.7652 9.69212 13.1832V10.8103C9.69212 10.2283 10.1613 9.75591 10.7392 9.75591H17.8105C18.3884 9.75591 18.8575 10.2283 18.8575 10.8103V22.9434C18.8575 23.5254 19.3267 23.9979 19.9046 23.9979H36.9303C37.5082 23.9979 37.9773 23.5254 37.9773 22.9434V15.2942C37.9773 14.7122 37.5082 14.2398 36.9303 14.2398H34.3116C33.7337 14.2398 33.2645 13.7674 33.2645 13.1854V10.8125C33.2645 10.2305 33.7337 9.75805 34.3116 9.75805H41.4341C42.012 9.75805 42.4811 10.2305 42.4811 10.8125V22.9456C42.4811 23.5276 42.9503 24 43.5282 24H46.4091C46.987 24 47.4562 23.5276 47.4562 22.9456V10.8125C47.4562 10.2305 47.9253 9.75805 48.5032 9.75805H50.8596C51.4375 9.75805 51.9067 10.2305 51.9067 10.8125V18.1976C51.9067 18.7795 52.3758 19.252 52.9537 19.252H55.5724C56.1503 19.252 56.6195 19.7244 56.6195 20.3064V22.9434C56.6195 23.5254 57.0886 23.9979 57.6665 23.9979H69.9773C70.5552 23.9979 71.0244 23.5254 71.0244 22.9434V20.3064C71.0244 19.7244 71.4935 19.252 72.0714 19.252H74.6901C75.268 19.252 75.7371 18.7795 75.7371 18.1976V10.8125C75.7371 10.2305 76.2063 9.75805 76.7842 9.75805H79.1406C79.7185 9.75805 80.1876 10.2305 80.1876 10.8125V18.1976C80.1876 18.7795 80.6568 19.252 81.2347 19.252H84.1156C84.6935 19.252 85.1627 18.7795 85.1627 18.1976V10.8125C85.1627 10.2305 85.6318 9.75805 86.2097 9.75805H88.5661C89.144 9.75805 89.6132 10.2305 89.6132 10.8125V22.9456C89.6132 23.5276 90.0823 24 90.6602 24H93.5412C94.1191 24 94.5882 23.5276 94.5882 22.9456V5.80243C94.5882 5.22047 94.1191 4.74803 93.5412 4.74803H89.8733H89.8904Z" fill="white"/>
</svg>
